<?xml version="1.0" encoding="UTF-8" standalone="no"?>
<svg
   xmlns:dc="http://purl.org/dc/elements/1.1/"
   xmlns:cc="http://creativecommons.org/ns#"
   xmlns:rdf="http://www.w3.org/1999/02/22-rdf-syntax-ns#"
   xmlns:svg="http://www.w3.org/2000/svg"
   xmlns="http://www.w3.org/2000/svg"
   xmlns:xlink="http://www.w3.org/1999/xlink"
   xmlns:sodipodi="http://sodipodi.sourceforge.net/DTD/sodipodi-0.dtd"
   xmlns:inkscape="http://www.inkscape.org/namespaces/inkscape"
   version="1.1"
   id="svg"
   x="0px"
   y="0px"
   width="178.52065"
   height="53.444729"
   viewBox="0 0 142.81652 42.756146"
   xml:space="preserve"
   inkscape:version="0.48.2 r9819"
   sodipodi:docname="blinkstick.svg"><metadata
   id="metadata23144"><rdf:RDF><cc:Work
       rdf:about=""><dc:format>image/svg+xml</dc:format><dc:type
         rdf:resource="http://purl.org/dc/dcmitype/StillImage" /><dc:title></dc:title></cc:Work></rdf:RDF></metadata><defs
   id="defs23142"><linearGradient
   id="linearGradient25831"><stop
     style="stop-color:#b3b3b3;stop-opacity:1;"
     offset="0"
     id="stop25833" /><stop
     style="stop-color:#e6e6e6;stop-opacity:1;"
     offset="1"
     id="stop25835" /></linearGradient>
		
		
		
	
		
	
			
			
			
		<linearGradient
   inkscape:collect="always"
   xlink:href="#linearGradient25831"
   id="linearGradient25837"
   x1="-68.714241"
   y1="12.941693"
   x2="-27.501102"
   y2="12.941693"
   gradientUnits="userSpaceOnUse" />
		
		
		
		
	<sodipodi:namedview
   gridtolerance="10"
   guidetolerance="10"
   borderopacity="1"
   bordercolor="#666666"
   objecttolerance="10"
   showgrid="false"
   pagecolor="#ffffff"
   id="namedview5969" /><linearGradient
   inkscape:collect="always"
   xlink:href="#linearGradient9420-1"
   id="linearGradient12747"
   gradientUnits="userSpaceOnUse"
   gradientTransform="matrix(0.3846154,0,0,0.8,-31.673078,-481.05001)"
   x1="47.25"
   y1="74.25"
   x2="53.099998"
   y2="74.25" /><linearGradient
   id="linearGradient9420-1"><stop
     offset="0"
     style="stop-color:#b3b3b3;stop-opacity:1"
     id="stop9422-5" /><stop
     offset="0.25"
     style="stop-color:#939393;stop-opacity:1"
     id="stop9424-7" /><stop
     offset="0.5"
     style="stop-color:#d3d3d3;stop-opacity:1"
     id="stop9426-4" /><stop
     offset="0.75"
     style="stop-color:#969696;stop-opacity:1"
     id="stop9428-8" /><stop
     offset="1"
     style="stop-color:#909090;stop-opacity:1"
     id="stop9430-5" /></linearGradient><linearGradient
   inkscape:collect="always"
   xlink:href="#linearGradient9420-1"
   id="linearGradient12749"
   gradientUnits="userSpaceOnUse"
   gradientTransform="matrix(0.3846154,0,0,0.8,-31.673078,-486.90001)"
   x1="47.25"
   y1="74.25"
   x2="53.099998"
   y2="74.25" /><linearGradient
   id="linearGradient3073"><stop
     offset="0"
     style="stop-color:#b3b3b3;stop-opacity:1"
     id="stop3075" /><stop
     offset="0.25"
     style="stop-color:#939393;stop-opacity:1"
     id="stop3077" /><stop
     offset="0.5"
     style="stop-color:#d3d3d3;stop-opacity:1"
     id="stop3079" /><stop
     offset="0.75"
     style="stop-color:#969696;stop-opacity:1"
     id="stop3081" /><stop
     offset="1"
     style="stop-color:#909090;stop-opacity:1"
     id="stop3083" /></linearGradient><linearGradient
   inkscape:collect="always"
   xlink:href="#linearGradient9420-1"
   id="linearGradient12751"
   gradientUnits="userSpaceOnUse"
   gradientTransform="matrix(0.3846154,0,0,0.8,-31.673078,-492.75002)"
   x1="47.25"
   y1="74.25"
   x2="53.099998"
   y2="74.25" /><linearGradient
   id="linearGradient3086"><stop
     offset="0"
     style="stop-color:#b3b3b3;stop-opacity:1"
     id="stop3088" /><stop
     offset="0.25"
     style="stop-color:#939393;stop-opacity:1"
     id="stop3090" /><stop
     offset="0.5"
     style="stop-color:#d3d3d3;stop-opacity:1"
     id="stop3092" /><stop
     offset="0.75"
     style="stop-color:#969696;stop-opacity:1"
     id="stop3094" /><stop
     offset="1"
     style="stop-color:#909090;stop-opacity:1"
     id="stop3096" /></linearGradient><linearGradient
   inkscape:collect="always"
   xlink:href="#linearGradient9420-1"
   id="linearGradient12753"
   gradientUnits="userSpaceOnUse"
   gradientTransform="matrix(0.3846154,0,0,0.8,-31.673078,-481.05001)"
   x1="47.25"
   y1="74.25"
   x2="53.099998"
   y2="74.25" /><linearGradient
   id="linearGradient3099"><stop
     offset="0"
     style="stop-color:#b3b3b3;stop-opacity:1"
     id="stop3101" /><stop
     offset="0.25"
     style="stop-color:#939393;stop-opacity:1"
     id="stop3103" /><stop
     offset="0.5"
     style="stop-color:#d3d3d3;stop-opacity:1"
     id="stop3105" /><stop
     offset="0.75"
     style="stop-color:#969696;stop-opacity:1"
     id="stop3107" /><stop
     offset="1"
     style="stop-color:#909090;stop-opacity:1"
     id="stop3109" /></linearGradient><linearGradient
   inkscape:collect="always"
   xlink:href="#linearGradient9420-1"
   id="linearGradient12755"
   gradientUnits="userSpaceOnUse"
   gradientTransform="matrix(0.3846154,0,0,0.8,-31.673078,-486.90001)"
   x1="47.25"
   y1="74.25"
   x2="53.099998"
   y2="74.25" /><linearGradient
   id="linearGradient3112"><stop
     offset="0"
     style="stop-color:#b3b3b3;stop-opacity:1"
     id="stop3114" /><stop
     offset="0.25"
     style="stop-color:#939393;stop-opacity:1"
     id="stop3116" /><stop
     offset="0.5"
     style="stop-color:#d3d3d3;stop-opacity:1"
     id="stop3118" /><stop
     offset="0.75"
     style="stop-color:#969696;stop-opacity:1"
     id="stop3120" /><stop
     offset="1"
     style="stop-color:#909090;stop-opacity:1"
     id="stop3122" /></linearGradient><linearGradient
   inkscape:collect="always"
   xlink:href="#linearGradient9420-1"
   id="linearGradient12757"
   gradientUnits="userSpaceOnUse"
   gradientTransform="matrix(0.3846154,0,0,0.8,-31.673078,-492.75002)"
   x1="47.25"
   y1="74.25"
   x2="53.099998"
   y2="74.25" /><linearGradient
   id="linearGradient3125"><stop
     offset="0"
     style="stop-color:#b3b3b3;stop-opacity:1"
     id="stop3127" /><stop
     offset="0.25"
     style="stop-color:#939393;stop-opacity:1"
     id="stop3129" /><stop
     offset="0.5"
     style="stop-color:#d3d3d3;stop-opacity:1"
     id="stop3131" /><stop
     offset="0.75"
     style="stop-color:#969696;stop-opacity:1"
     id="stop3133" /><stop
     offset="1"
     style="stop-color:#909090;stop-opacity:1"
     id="stop3135" /></linearGradient><linearGradient
   inkscape:collect="always"
   xlink:href="#linearGradient21490"
   id="linearGradient12759"
   gradientUnits="userSpaceOnUse"
   x1="18"
   y1="18"
   x2="27"
   y2="27" /><linearGradient
   id="linearGradient21490"><stop
     offset="0"
     style="stop-color:#000000;stop-opacity:0.13725491"
     id="stop21492" /><stop
     offset="1"
     style="stop-color:#ffffff;stop-opacity:0.81960785"
     id="stop21494" /></linearGradient><radialGradient
   r="6.75"
   fy="21.6"
   fx="22.049999"
   cy="21.6"
   cx="22.049999"
   gradientUnits="userSpaceOnUse"
   id="radialGradient6144"
   xlink:href="#linearGradient4593"
   inkscape:collect="always" /><linearGradient
   id="linearGradient4593"><stop
     offset="0"
     style="stop-color:#000000;stop-opacity:0.20105819"
     id="stop4595" /><stop
     offset="1"
     style="stop-color:#ffffff;stop-opacity:0.39285713"
     id="stop4597" /></linearGradient><radialGradient
   r="6.75"
   fy="21.6"
   fx="22.049999"
   cy="21.6"
   cx="22.049999"
   gradientUnits="userSpaceOnUse"
   id="radialGradient3166"
   xlink:href="#linearGradient4593"
   inkscape:collect="always" /></defs><sodipodi:namedview
   pagecolor="#ffffff"
   bordercolor="#666666"
   borderopacity="1"
   objecttolerance="10"
   gridtolerance="10"
   guidetolerance="10"
   inkscape:pageopacity="0"
   inkscape:pageshadow="2"
   inkscape:window-width="1920"
   inkscape:window-height="1138"
   id="namedview23140"
   showgrid="false"
   inkscape:zoom="2"
   inkscape:cx="110.92106"
   inkscape:cy="-60.658879"
   inkscape:window-x="-8"
   inkscape:window-y="-8"
   inkscape:window-maximized="1"
   inkscape:current-layer="breadboard"
   showguides="true"
   inkscape:guide-bbox="true"
   fit-margin-top="0"
   fit-margin-left="0"
   fit-margin-right="0"
   fit-margin-bottom="0" />























<g
   id="breadboard"
   transform="translate(49.200369,-50.517672)">
	<path
   inkscape:connector-curvature="0"
   style="fill:#186818;fill-opacity:1"
   id="path22826"
   d="m -13.003773,93.273819 106.620952,0 0,-42.756147 -106.620952,0 z"
   sodipodi:nodetypes="ccccc" />
	
	
	
	
	
	
	
	
	
	
	
	
	
	
	
	
	
	
	
	
	<g
   id="g22984"
   transform="matrix(0,-1,1,0,-34.287299,98.504098)">
			<path
   style="fill:#9a916c"
   inkscape:connector-curvature="0"
   id="path22986"
   d="m 43.856,30.498 c 1.988,0 3.598,-1.609 3.598,-3.598 0,-1.985 -1.609,-3.598 -3.598,-3.598 -1.986,0 -3.598,1.612 -3.598,3.598 10e-4,1.988 1.612,3.598 3.598,3.598 z" />
			<circle
   style="fill:#3a3a3a"
   sodipodi:ry="2.7079999"
   sodipodi:rx="2.7079999"
   sodipodi:cy="26.896999"
   sodipodi:cx="43.855999"
   d="m 46.563999,26.896999 c 0,1.495587 -1.212413,2.708 -2.708,2.708 -1.495587,0 -2.708,-1.212413 -2.708,-2.708 0,-1.495587 1.212413,-2.708 2.708,-2.708 1.495587,0 2.708,1.212413 2.708,2.708 z"
   id="circle22988"
   r="2.7079999"
   cy="26.896999"
   cx="43.855999" />
		</g><g
   id="g22990"
   transform="matrix(0,-1,1,0,-34.287299,98.504098)">
			<path
   style="fill:#9a916c"
   inkscape:connector-curvature="0"
   id="path22992"
   d="m 9.836,30.498 c 1.988,0 3.598,-1.609 3.598,-3.598 0,-1.985 -1.609,-3.598 -3.598,-3.598 -1.985,0 -3.598,1.612 -3.598,3.598 10e-4,1.988 1.613,3.598 3.598,3.598 z" />
			<circle
   style="fill:#3a3a3a"
   sodipodi:ry="2.7079999"
   sodipodi:rx="2.7079999"
   sodipodi:cy="26.896999"
   sodipodi:cx="9.8360004"
   d="m 12.544,26.896999 c 0,1.495587 -1.212412,2.708 -2.7079996,2.708 -1.495587,0 -2.7079999,-1.212413 -2.7079999,-2.708 0,-1.495587 1.2124129,-2.708 2.7079999,-2.708 1.4955876,0 2.7079996,1.212413 2.7079996,2.708 z"
   id="circle22994"
   r="2.7079999"
   cy="26.896999"
   cx="9.8360004" />
		</g>
	
	
	
	
	
	
	
	
	
	
	
	
	
	
	
	
	
	
<g
   id="g25839"
   transform="matrix(0,-1,1,0,-58.516293,32.963797)"><path
     style="fill:#808080"
     inkscape:connector-curvature="0"
     id="path24645"
     d="m -22.912854,57.064002 c 0.495005,0 0.900008,-0.350118 0.900008,-0.778424 l 0,-45.769788 c 0,-0.429176 -0.405003,-0.7784219 -0.900008,-0.7784219 l -31.083243,0 c -0.496005,0 -0.897006,0.3492479 -0.897006,0.7784219 l -5e-5,45.76718 c 0,0.429176 0.401003,0.778421 0.897005,0.778421 l 31.083294,0.0026 0,0 z" /><g
     transform="matrix(-0.07200062,0,0,-0.06067139,-22.012846,54.237528)"
     id="g24649"><g
       id="g24651"><rect
         style="fill:#666666"
         id="rect24653"
         height="478.694"
         y="249.75"
         x="77.319397"
         width="31.25" /></g><g
       id="g24655"><rect
         style="fill:#666666"
         id="rect24657"
         height="478.694"
         y="249.75"
         x="169.33299"
         width="31.25" /></g><g
       id="g24659"><rect
         style="fill:#666666"
         id="rect24661"
         height="478.694"
         y="249.75"
         x="261.33301"
         width="31.25" /></g><g
       id="g24663"><rect
         style="fill:#666666"
         id="rect24665"
         height="478.694"
         y="249.75"
         x="353.319"
         width="31.25" /></g></g><g
     transform="matrix(-0.07200062,0,0,-0.06118636,-22.012846,54.36614)"
     id="g24667"><g
       id="g24669"><rect
         style="fill:#999999"
         id="rect24671"
         height="478.694"
         y="249.75"
         x="73.847198"
         width="31.25" /></g><g
       id="g24673"><rect
         style="fill:#999999"
         id="rect24675"
         height="478.694"
         y="249.75"
         x="165.86099"
         width="31.25" /></g><g
       id="g24677"><rect
         style="fill:#999999"
         id="rect24679"
         height="478.694"
         y="249.75"
         x="257.86099"
         width="31.25" /></g><g
       id="g24681"><rect
         style="fill:#999999"
         id="rect24683"
         height="478.694"
         y="249.75"
         x="349.84698"
         width="31.25" /></g></g><rect
     transform="scale(-1,-1)"
     style="fill:#cccccc"
     id="rect24685"
     height="4.1880383"
     y="-13.738612"
     x="22.014847"
     width="32.881313" /><rect
     transform="scale(-1,-1)"
     style="fill:#666666"
     id="rect24687"
     height="1.7910154"
     y="-28.479733"
     x="25.286873"
     width="27.750263" /><path
     style="fill:#cccccc"
     inkscape:connector-curvature="0"
     id="path24689"
     d="m -22.960857,57.064002 c 0.521005,0 0.94701,-0.427004 0.94701,-0.945008 l 0,-45.188382 c 0,-0.521004 -0.426004,-0.9460085 -0.94701,-0.9460085 l -30.986258,0 c -0.521005,0 -0.944008,0.4280035 -0.944008,0.9460085 l -1.4e-5,45.185384 c 0,0.521005 0.429003,0.945008 0.944007,0.945008 l 30.986273,0.003 0,0 z m -9.673088,-35.036318 c 0,-0.521004 0.428003,-0.949011 0.949011,-0.949011 l 4.585043,4.3e-5 c 0.521004,0 0.946009,0.430004 0.946009,0.949011 l 0,3.903032 c 0,0.521004 -0.427004,0.947009 -0.946009,0.947009 l -4.584042,0 c -0.521005,0 -0.94701,-0.430003 -0.94701,-0.947009 l 0,-3.903032 -0.003,-4.3e-5 z m -18.125149,0 c 0,-0.521004 0.430004,-0.949011 0.949012,-0.949011 l 4.584042,0 c 0.521004,0 0.945008,0.430003 0.945008,0.949011 l 0,3.903031 c 0,0.521005 -0.426004,0.94701 -0.945008,0.94701 l -4.584042,0 c -0.521005,0 -0.945008,-0.430003 -0.945008,-0.94701 l 0,-3.903031 -0.004,0 z" /><polygon
     transform="matrix(-0.07200062,0,0,-0.07200062,-22.012846,57.067002)"
     style="fill:#e6e6e6"
     id="polygon24691"
     points="276.583,185.514 180.167,185.514 196.236,88.2917 260.5,88.2917 " /><polygon
     transform="matrix(-0.07200062,0,0,-0.07200062,-22.012846,57.067002)"
     style="fill:#b3b3b3"
     id="polygon24693"
     points="196.236,88.2917 180.167,185.514 184.958,185.514 199.111,88.2917 " /><path
     style="fill:#f2f2f2"
     inkscape:connector-curvature="0"
     id="path24695"
     d="m -41.704008,45.054923 -0.224001,-1.346009 6.939059,0 -0.021,0.122001 c 0.007,0.001 -6.567048,0.361008 -6.694058,1.224008 z" /><path
     style="fill:#e6e6e6"
     inkscape:connector-curvature="0"
     id="path24697"
     d="m -22.014846,9.5535769 c 0,0 0,45.6314011 0,46.3753831 0,0.82704 -0.396004,1.138042 -0.899009,1.138042 -0.503005,0 -20.852171,0 -20.852171,0 0,0 7.311087,-0.313003 9.561106,-0.313003 5.979054,0 9.898069,-0.750008 10.710092,-1.000009 1.876985,-0.580007 -0.03303,-33.528304 0.531977,-45.7733775 0.009,-0.2120418 0.002,-0.00101 0.948005,-0.4270356 z" /><path
     style="fill:#b3b3b3"
     inkscape:connector-curvature="0"
     id="path24699"
     d="m -54.896105,52.933791 c 0,-4.299216 0,-43.6180483 0,-43.6180483 0,0 -0.100001,1.9028703 0.898006,1.9028703 -0.332003,2.324324 0.002,45.321344 0.002,45.321344 0,0 -0.900007,0.692081 -0.900007,-3.606166 z" /><path
     sodipodi:nodetypes="ccccc"
     transform="matrix(0.80000686,0,0,0.80000686,-2.1616114e-4,0)"
     inkscape:connector-curvature="0"
     id="path25061"
     d="m -68.632532,11.951736 41.13143,-0.01149 -1.309576,0.539238 -38.743379,1.629194 c -1.123469,-0.183841 -1.078475,-2.156946 -1.078475,-2.156946 z"
     style="fill:url(#linearGradient25837);fill-opacity:1;stroke:none" /></g>
<text
   style="font-size:2.26553416px;fill:#ffffff;font-family:OCRA"
   id="text23110"
   font-size="2"
   x="49.77137"
   y="54.773266"><tspan
     style="font-size:3.6248858px;font-style:normal;font-variant:normal;font-weight:normal;font-stretch:normal;font-family:OCR A Std;-inkscape-font-specification:OCR A Std"
     id="tspan111220">Agile Innovative</tspan></text>

<text
   style="font-size:2.44878292px;fill:#ffffff;font-family:OCRA"
   id="text23112"
   font-size="2"
   x="50.169556"
   y="90.749557"><tspan
     style="font-size:3.91808629px;font-style:normal;font-variant:normal;font-weight:normal;font-stretch:normal;font-family:OCR A Std;-inkscape-font-specification:OCR A Std"
     id="tspan111222">BlinkStick v1.1</tspan></text>



<circle
   d="m 124.452,21.6 c 0,1.133289 -0.91871,2.052 -2.052,2.052 -1.13329,0 -2.052,-0.918711 -2.052,-2.052 0,-1.133288 0.91871,-2.052 2.052,-2.052 1.13329,0 2.052,0.918712 2.052,2.052 z"
   transform="matrix(0,-1.0000085,1.0000085,0,31.652571,183.82977)"
   cx="122.4"
   cy="21.6"
   connectorname="GND"
   r="2.052"
   id="circle111200-1"
   sodipodi:cx="122.4"
   sodipodi:cy="21.6"
   sodipodi:rx="2.052"
   sodipodi:ry="2.052"
   style="fill:#ffffff;stroke:#d4aa00;stroke-width:1.22399998" /><circle
   d="m 124.452,21.6 c 0,1.133289 -0.91871,2.052 -2.052,2.052 -1.13329,0 -2.052,-0.918711 -2.052,-2.052 0,-1.133288 0.91871,-2.052 2.052,-2.052 1.13329,0 2.052,0.918712 2.052,2.052 z"
   transform="matrix(0,-1.0000085,1.0000085,0,37.521608,183.86513)"
   cx="122.4"
   cy="21.6"
   connectorname="GND"
   r="2.052"
   id="circle111200-1-9"
   sodipodi:cx="122.4"
   sodipodi:cy="21.6"
   sodipodi:rx="2.052"
   sodipodi:ry="2.052"
   style="fill:#ffffff;stroke:#d4aa00;stroke-width:1.22399998" /><circle
   d="m 124.452,21.6 c 0,1.133289 -0.91871,2.052 -2.052,2.052 -1.13329,0 -2.052,-0.918711 -2.052,-2.052 0,-1.133288 0.91871,-2.052 2.052,-2.052 1.13329,0 2.052,0.918712 2.052,2.052 z"
   transform="matrix(0,-1.0000085,1.0000085,0,43.213867,183.79441)"
   cx="122.4"
   cy="21.6"
   connectorname="GND"
   r="2.052"
   id="circle111200-1-9-8"
   sodipodi:cx="122.4"
   sodipodi:cy="21.6"
   sodipodi:rx="2.052"
   sodipodi:ry="2.052"
   style="fill:#ffffff;stroke:#d4aa00;stroke-width:1.22399998" /><circle
   d="m 124.452,21.6 c 0,1.133289 -0.91871,2.052 -2.052,2.052 -1.13329,0 -2.052,-0.918711 -2.052,-2.052 0,-1.133288 0.91871,-2.052 2.052,-2.052 1.13329,0 2.052,0.918712 2.052,2.052 z"
   transform="matrix(0,-1.0000085,1.0000085,0,49.047548,183.82977)"
   cx="122.4"
   cy="21.6"
   connectorname="GND"
   r="2.052"
   id="circle111200-1-9-8-9"
   sodipodi:cx="122.4"
   sodipodi:cy="21.6"
   sodipodi:rx="2.052"
   sodipodi:ry="2.052"
   style="fill:#ffffff;stroke:#d4aa00;stroke-width:1.22399998" /><circle
   d="m 124.452,21.6 c 0,1.133289 -0.91871,2.052 -2.052,2.052 -1.13329,0 -2.052,-0.918711 -2.052,-2.052 0,-1.133288 0.91871,-2.052 2.052,-2.052 1.13329,0 2.052,0.918712 2.052,2.052 z"
   transform="matrix(0,-1.0000085,1.0000085,0,48.941481,202.63897)"
   cx="122.4"
   cy="21.6"
   connectorname="GND"
   r="2.052"
   id="circle111200-1-9-8-9-7"
   sodipodi:cx="122.4"
   sodipodi:cy="21.6"
   sodipodi:rx="2.052"
   sodipodi:ry="2.052"
   style="fill:#ffffff;stroke:#d4aa00;stroke-width:1.22399998" /><circle
   d="m 124.452,21.6 c 0,1.133289 -0.91871,2.052 -2.052,2.052 -1.13329,0 -2.052,-0.918711 -2.052,-2.052 0,-1.133288 0.91871,-2.052 2.052,-2.052 1.13329,0 2.052,0.918712 2.052,2.052 z"
   transform="matrix(0,-1.0000085,1.0000085,0,31.723283,202.6036)"
   cx="122.4"
   cy="21.6"
   connectorname="GND"
   r="2.052"
   id="circle111200-1-9-8-9-7-289"
   sodipodi:cx="122.4"
   sodipodi:cy="21.6"
   sodipodi:rx="2.052"
   sodipodi:ry="2.052"
   style="fill:#ffffff;stroke:#d4aa00;stroke-width:1.22399998" /><circle
   d="m 124.452,21.6 c 0,1.133289 -0.91871,2.052 -2.052,2.052 -1.13329,0 -2.052,-0.918711 -2.052,-2.052 0,-1.133288 0.91871,-2.052 2.052,-2.052 1.13329,0 2.052,0.918712 2.052,2.052 z"
   transform="matrix(0,-1.0000085,1.0000085,0,37.415541,202.60362)"
   cx="122.4"
   cy="21.6"
   connectorname="GND"
   r="2.052"
   id="circle111200-1-9-8-9-7-28"
   sodipodi:cx="122.4"
   sodipodi:cy="21.6"
   sodipodi:rx="2.052"
   sodipodi:ry="2.052"
   style="fill:#ffffff;stroke:#d4aa00;stroke-width:1.22399998" /><circle
   d="m 124.452,21.6 c 0,1.133289 -0.91871,2.052 -2.052,2.052 -1.13329,0 -2.052,-0.918711 -2.052,-2.052 0,-1.133288 0.91871,-2.052 2.052,-2.052 1.13329,0 2.052,0.918712 2.052,2.052 z"
   transform="matrix(0,-1.0000085,1.0000085,0,43.178508,202.60361)"
   cx="122.4"
   cy="21.6"
   connectorname="GND"
   r="2.052"
   id="circle111200-1-9-8-9-7-2"
   sodipodi:cx="122.4"
   sodipodi:cy="21.6"
   sodipodi:rx="2.052"
   sodipodi:ry="2.052"
   style="fill:#ffffff;stroke:#d4aa00;stroke-width:1.22399998" /><g
   id="g111808"
   transform="matrix(0.80000686,0,0,0.80000686,50.395369,61.348672)"><rect
     style="fill:#8c8c8c"
     id="connector0pin"
     x="2.5209999"
     y="20.643"
     width="2.1600001"
     height="3.125" /><rect
     style="fill:#8c8c8c"
     id="connector1pin"
     x="9.7209997"
     y="20.643"
     width="2.1600001"
     height="3.125" /><rect
     style="fill:#8c8c8c"
     id="connector2pin"
     x="16.92"
     y="20.643"
     width="2.1600001"
     height="3.125" /><rect
     style="fill:#8c8c8c"
     id="connector3pin"
     x="24.121"
     y="20.643"
     width="2.158"
     height="3.125" /><rect
     style="fill:#8c8c8c"
     id="connector4pin"
     x="24.121"
     y="0.0080000004"
     width="2.158"
     height="3.125" /><rect
     style="fill:#8c8c8c"
     id="connector5pin"
     x="16.92"
     y="0.0080000004"
     width="2.1600001"
     height="3.125" /><rect
     style="fill:#8c8c8c"
     id="connector6pin"
     x="9.7209997"
     y="0.0080000004"
     width="2.1600001"
     height="3.125" /><rect
     style="fill:#8c8c8c"
     id="connector7pin"
     x="2.5209999"
     y="0.0080000004"
     width="2.1600001"
     height="3.125" /><rect
     style="fill:#8c8c8c"
     id="connector0terminal"
     x="2.5209999"
     y="21.607"
     width="2.1600001"
     height="2.1600001" /><rect
     style="fill:#8c8c8c"
     id="connector1terminal"
     x="9.7209997"
     y="21.607"
     width="2.1600001"
     height="2.1600001" /><rect
     style="fill:#8c8c8c"
     id="connector2terminal"
     x="16.92"
     y="21.607"
     width="2.1600001"
     height="2.1600001" /><rect
     style="fill:#8c8c8c"
     id="connector3terminal"
     x="24.121"
     y="21.607"
     width="2.158"
     height="2.1600001" /><rect
     style="fill:#8c8c8c"
     id="connector4terminal"
     x="24.121"
     y="0.0080000004"
     width="2.158"
     height="2.1600001" /><rect
     style="fill:#8c8c8c"
     id="connector5terminal"
     x="16.92"
     y="0.0080000004"
     width="2.1600001"
     height="2.1600001" /><rect
     style="fill:#8c8c8c"
     id="connector6terminal"
     x="9.7209997"
     y="0.0080000004"
     width="2.1600001"
     height="2.1600001" /><rect
     style="fill:#8c8c8c"
     id="connector7terminal"
     x="2.5209999"
     y="0.0080000004"
     width="2.1600001"
     height="2.1600001" /><g
     id="breadboard-8"><rect
       style="fill:#8c8c8c"
       id="rect20"
       x="2.5209999"
       y="18.958"
       width="2.1600001"
       height="4.8099999" /><rect
       style="fill:#8c8c8c"
       id="rect22"
       x="9.7209997"
       y="18.958"
       width="2.1600001"
       height="4.8099999" /><rect
       style="fill:#8c8c8c"
       id="rect24"
       x="16.92"
       y="18.958"
       width="2.1600001"
       height="4.8099999" /><rect
       style="fill:#8c8c8c"
       id="rect26"
       x="24.121"
       y="18.958"
       width="2.158"
       height="4.8099999" /><rect
       style="fill:#8c8c8c"
       id="rect28"
       x="2.5209999"
       y="0.0080000004"
       width="2.1600001"
       height="4.8099999" /><rect
       style="fill:#8c8c8c"
       id="rect30"
       x="9.7209997"
       y="0.0080000004"
       width="2.1600001"
       height="4.8099999" /><rect
       style="fill:#8c8c8c"
       id="rect32"
       x="16.92"
       y="0.0080000004"
       width="2.1600001"
       height="4.8099999" /><rect
       style="fill:#8c8c8c"
       id="rect34"
       x="24.121"
       y="0.0080000004"
       width="2.158"
       height="4.8099999" /><polygon
       style="fill:#3d3d3d"
       id="polygon36"
       points="28.26,8.287 0,8.287 0,2.168 28.801,2.168 " /><polygon
       id="polygon38"
       points="28.801,21.607 0,21.607 0,15.487 28.26,15.487 " /><polygon
       style="fill:#8c8c8c"
       id="polygon40"
       points="4.681,1.692 2.521,1.692 2.521,3.133 6.121,3.133 6.121,2.354 " /><polygon
       style="fill:#8c8c8c"
       id="polygon42"
       points="13.32,3.133 13.32,2.354 11.88,1.692 9.721,1.692 8.28,2.354 8.28,3.133 " /><polygon
       style="fill:#8c8c8c"
       id="polygon44"
       points="24.121,1.692 22.682,2.354 22.682,3.133 26.279,3.133 26.279,1.692 " /><polygon
       style="fill:#8c8c8c"
       id="polygon46"
       points="20.521,3.133 20.521,2.354 19.08,1.692 16.92,1.692 15.48,2.354 15.48,3.133 " /><polygon
       style="fill:#8c8c8c"
       id="polygon48"
       points="4.681,22.083 6.121,21.42 6.121,20.643 2.521,20.643 2.521,22.083 " /><polygon
       style="fill:#8c8c8c"
       id="polygon50"
       points="24.121,22.083 26.279,22.083 26.279,20.643 22.682,20.643 22.682,21.42 " /><polygon
       style="fill:#8c8c8c"
       id="polygon52"
       points="8.28,20.643 8.28,21.42 9.721,22.083 11.88,22.083 13.32,21.42 13.32,20.643 " /><polygon
       style="fill:#8c8c8c"
       id="polygon54"
       points="15.48,20.643 15.48,21.42 16.92,22.083 19.08,22.083 20.521,21.42 20.521,20.643 " /><polygon
       style="fill:#141414"
       id="polygon56"
       points="28.801,2.168 28.26,3.938 27.255,3.938 27.255,19.829 28.26,19.836 28.801,21.607 " /><polygon
       style="fill:#1f1f1f"
       id="polygon58"
       points="0.541,8.287 3.601,8.287 3.601,15.487 0.541,15.487 0.541,19.836 0,21.607 0,2.168 0.541,3.938 " /><polygon
       style="fill:#1c1c1c"
       id="polygon60"
       points="0.404,9.785 0.404,11.88 3.601,11.88 3.601,8.287 0.541,8.259 " /><polygon
       style="fill:#383838"
       id="polygon62"
       points="3.601,11.88 0.404,11.88 0.404,13.99 0.541,15.523 3.601,15.523 " /><path
       style="fill:#303030"
       inkscape:connector-curvature="0"
       id="path64"
       d="m 0.541,3.938 v 4.313 c 1.713,0.321 3.017,1.819 3.017,3.628 0,1.808 -1.296,3.313 -3.017,3.637 v 4.313 H 28.26 V 3.938 H 0.541 z" /><path
       style="fill:#262626"
       inkscape:connector-curvature="0"
       id="path66"
       d="M 0.404,9.785 V 13.98 C 1.462,13.86 2.29,12.975 2.29,11.88 2.29,10.786 1.469,9.906 0.404,9.785 z" /><circle
       style="fill:#212121"
       sodipodi:ry="1.483"
       sodipodi:rx="1.483"
       sodipodi:cy="16.906"
       sodipodi:cx="4.6810002"
       id="circle68"
       cx="4.6810002"
       cy="16.906"
       r="1.483"
       d="m 6.1640003,16.906 c 0,0.819038 -0.6639618,1.483 -1.4830001,1.483 -0.8190383,0 -1.483,-0.663962 -1.483,-1.483 0,-0.819038 0.6639617,-1.483 1.483,-1.483 0.8190383,0 1.4830001,0.663962 1.4830001,1.483 z" /></g></g><rect
   style="fill:#8c8c8c"
   id="rect2544"
   x="52.417152"
   y="77.840973"
   width="1.7273748"
   height="2.5421016" /><rect
   style="fill:#8c8c8c"
   id="rect2546"
   x="58.172066"
   y="77.840973"
   width="1.7273748"
   height="2.5421016" /><rect
   style="fill:#8c8c8c"
   id="rect2548"
   x="63.932121"
   y="77.840973"
   width="1.7273748"
   height="2.5421016" /><rect
   style="fill:#8c8c8c"
   id="rect2550"
   x="69.691536"
   y="77.840973"
   width="1.7273748"
   height="2.5421016" /><polygon
   style="fill:#8c8c8c"
   id="polygon2564"
   points="7.649,-0.568 5.851,-1.394 3.152,-1.394 3.152,0.404 7.649,0.404 "
   transform="matrix(0.64000549,0,0,0.64000549,50.395369,63.588691)" /><polygon
   style="fill:#8c8c8c"
   id="polygon2572"
   points="3.159,24.067 5.858,24.067 7.656,23.241 7.656,22.269 3.159,22.269 "
   transform="matrix(0.64000549,0,0,0.64000549,50.395369,63.588691)" /><polygon
   style="fill:#8c8c8c"
   id="polygon2574"
   points="28.352,23.241 30.15,24.067 32.849,24.067 32.849,22.269 28.352,22.269 "
   transform="matrix(0.64000549,0,0,0.64000549,50.395369,63.588691)" /><polygon
   style="fill:#8c8c8c"
   id="polygon2576"
   points="16.649,23.241 16.649,22.269 10.353,22.269 10.353,23.241 12.151,24.067 14.85,24.067 "
   transform="matrix(0.64000549,0,0,0.64000549,50.395369,63.588691)" /><polygon
   style="fill:#8c8c8c"
   id="polygon2578"
   points="25.648,23.241 25.648,22.269 19.353,22.269 19.353,23.241 21.151,24.067 23.85,24.067 "
   transform="matrix(0.64000549,0,0,0.64000549,50.395369,63.588691)" /><polygon
   style="fill:#8c8c8c"
   id="polygon111865"
   points="32.849,-1.395 30.15,-1.395 28.352,-0.568 28.352,0.403 32.849,0.403 "
   transform="matrix(0.64000549,0,0,0.64000549,50.395369,63.588691)" /><polygon
   style="fill:#8c8c8c"
   id="polygon111867"
   points="7.649,-0.568 5.851,-1.394 3.152,-1.394 3.152,0.404 7.649,0.404 "
   transform="matrix(0.64000549,0,0,0.64000549,50.395369,63.588691)" /><polygon
   style="fill:#8c8c8c"
   id="polygon111869"
   points="19.352,-0.568 19.352,0.403 25.648,0.403 25.648,-0.568 23.849,-1.395 21.151,-1.395 "
   transform="matrix(0.64000549,0,0,0.64000549,50.395369,63.588691)" /><polygon
   style="fill:#8c8c8c"
   id="polygon111871"
   points="10.353,-0.568 10.353,0.403 16.649,0.403 16.649,-0.568 14.85,-1.395 12.151,-1.395 "
   transform="matrix(0.64000549,0,0,0.64000549,50.395369,63.588691)" /><g
   id="text6122"
   transform="matrix(0.42943197,0,0,0.42943197,52.440069,64.301001)"><text
   font-size="4.2494"
   id="tspan6124"
   style="font-size:5.31175041px;fill:#f2f2f2;font-family:OCRA"
   x="0.34670013"
   y="6.8048501"><tspan
     style="font-style:normal;font-variant:normal;font-weight:normal;font-stretch:normal;font-family:OCR A Std;-inkscape-font-specification:OCR A Std"
     id="tspan3489">ATTiny85</tspan></text>

<text
   y="12.2736"
   x="1.5967001"
   style="font-size:5.31175041px;fill:#f2f2f2;font-family:OCRA"
   id="text128376"
   font-size="4.2494" />

</g><rect
   style="fill:#8c8c8c"
   id="rect2552"
   x="52.412666"
   y="61.349953"
   width="1.7273748"
   height="2.5126617" /><rect
   style="fill:#8c8c8c"
   id="rect111877"
   x="69.691536"
   y="61.348675"
   width="1.7273748"
   height="2.5126617" /><rect
   style="fill:#8c8c8c"
   id="rect111879"
   x="58.172066"
   y="61.348675"
   width="1.7273748"
   height="2.5126617" /><rect
   style="fill:#8c8c8c"
   id="rect111881"
   x="63.932121"
   y="61.348675"
   width="1.7267348"
   height="2.5126617" /><rect
   height="2.5432217"
   width="1.7344148"
   y="77.840012"
   x="69.672325"
   id="rect111883"
   style="fill:none" /><rect
   height="2.5424218"
   width="1.7248147"
   y="61.364674"
   x="69.679535"
   id="rect111885"
   style="fill:none" /><rect
   height="2.5424218"
   width="1.7264148"
   y="61.348675"
   x="63.933075"
   id="rect111887"
   style="fill:none" /><rect
   height="2.5424218"
   width="1.7272147"
   y="61.348675"
   x="58.172226"
   id="rect111889"
   style="fill:none" /><rect
   height="2.5424218"
   width="1.7272147"
   y="61.348675"
   x="52.409782"
   id="rect111891"
   style="fill:none" /><rect
   height="2.5432217"
   width="1.7272147"
   y="77.840012"
   x="52.416992"
   id="rect111893"
   style="fill:none" /><rect
   height="2.5432217"
   width="1.7272147"
   y="77.840012"
   x="58.172226"
   id="rect111895"
   style="fill:none" /><rect
   height="2.5432217"
   width="1.7272147"
   y="77.840012"
   x="63.932281"
   id="rect111897"
   style="fill:none" /><g
   id="g128190"
   transform="matrix(0,-1,1,0,-29.387257,98.004094)"><circle
     style="fill:#ffffff;stroke:#d4aa00;stroke-width:1.22399998"
     sodipodi:ry="2.052"
     sodipodi:rx="2.052"
     sodipodi:cy="21.6"
     sodipodi:cx="122.4"
     id="circle111200-1-8"
     r="2.052"
     connectorname="GND"
     cy="21.6"
     cx="122.4"
     transform="matrix(1.0000085,0,0,1.0000085,-80.386274,44.754913)"
     d="m 124.452,21.6 c 0,1.133289 -0.91871,2.052 -2.052,2.052 -1.13329,0 -2.052,-0.918711 -2.052,-2.052 0,-1.133288 0.91871,-2.052 2.052,-2.052 1.13329,0 2.052,0.918712 2.052,2.052 z" /><circle
     style="fill:#ffffff;stroke:#d4aa00;stroke-width:1.22399998"
     sodipodi:ry="2.052"
     sodipodi:rx="2.052"
     sodipodi:cy="21.6"
     sodipodi:cx="122.4"
     id="circle111200-1-1-8"
     r="2.052"
     connectorname="GND"
     cy="21.6"
     cx="122.4"
     transform="matrix(1.0000085,0,0,1.0000085,-109.9046,44.662019)"
     d="m 124.452,21.6 c 0,1.133289 -0.91871,2.052 -2.052,2.052 -1.13329,0 -2.052,-0.918711 -2.052,-2.052 0,-1.133288 0.91871,-2.052 2.052,-2.052 1.13329,0 2.052,0.918712 2.052,2.052 z" /><g
     transform="translate(-54.555556,-11.104228)"
     id="g112485"><rect
       height="0.72000611"
       width="0.72000611"
       y="76.397926"
       x="66.823334"
       id="connector0pin-8"
       style="fill:none" /><rect
       height="0.72000611"
       width="0.72000611"
       y="76.397926"
       x="96.283821"
       id="connector1pin-3"
       style="fill:none" /><line
       y2="77.445534"
       x2="68.558548"
       y1="77.445534"
       x1="67.510941"
       id="connector0leg"
       style="fill:none;stroke:#8c8c8c;stroke-width:2.09521794;stroke-linecap:round" /><line
       y2="77.445534"
       x2="95.268616"
       y1="77.445534"
       x1="96.316223"
       id="connector1leg"
       style="fill:none;stroke:#8c8c8c;stroke-width:2.09521794;stroke-linecap:round" /><path
       id="path112384"
       d="m 67.51094,77.445536 28.366801,0"
       inkscape:connector-curvature="0"
       style="fill:none;stroke:#8c8c8c;stroke-width:2.09521794" /><path
       d="M 76.711178,74.308469 C 76.351175,74.142868 75.73197,74.013267 75.335966,74.013267 H 73.34875 c -0.396004,0 -0.720007,0.324002 -0.720007,0.720006 v 5.356125 c 0,0.396724 0.324003,0.720006 0.720007,0.720006 h 1.987216 c 0.396004,0 1.015209,-0.136081 1.375212,-0.295202 l 0.072,-0.03528 c 0.360003,-0.165602 0.979208,-0.295203 1.375211,-0.295203 h 7.185661 c 0.396724,0 1.014489,0.136081 1.374492,0.295203 l 0.07272,0.03528 c 0.360003,0.165601 0.977768,0.295202 1.375211,0.295202 h 1.987217 c 0.397444,0 0.720006,-0.323282 0.720006,-0.720006 v -5.356125 c 0,-0.396004 -0.322562,-0.720006 -0.720006,-0.720006 h -1.987217 c -0.397443,0 -1.015208,0.136801 -1.375211,0.295202 l -0.07272,0.036 c -0.360003,0.165601 -0.977768,0.295202 -1.374492,0.295202 h -7.18566 c -0.396003,0 -1.015208,-0.136801 -1.375211,-0.295202 l -0.072,-0.036 z"
       id="body"
       inkscape:connector-curvature="0"
       style="fill:#d9b477" /><rect
       height="6.7954178"
       width="0.70272601"
       y="74.00679"
       x="88.482559"
       id="gold_band"
       style="fill:#ad9f4e" /><rect
       height="5.5368471"
       width="1.8504157"
       y="74.639671"
       x="82.636108"
       id="band_rd_multiplier"
       style="fill:#000000" /><rect
       height="5.5368471"
       width="1.8504157"
       y="74.639671"
       x="78.935997"
       id="band_2_nd"
       style="fill:#676c53" /><path
       d="m 77.092061,74.45247 c -0.115201,-0.036 -0.223202,-0.072 -0.309602,-0.115201 l -0.072,-0.036 C 76.350455,74.136388 75.73125,74.006067 75.335246,74.006067 h -0.0864 v 6.796137 h 0.0864 c 0.396004,0 1.015209,-0.136081 1.375212,-0.295202 l 0.072,-0.03528 c 0.0864,-0.04464 0.194401,-0.07992 0.309602,-0.115201 V 74.45247 z"
       id="band_1_st"
       inkscape:connector-curvature="0"
       style="fill:#0000ff" /><path
       d="m 90.174573,77.90274 0,0 c 0,0.379443 -0.130322,0.699126 -0.295203,0.699126 h -1.922416 c -0.380164,0 -0.977769,-0.05616 -1.332732,-0.122401 l -0.07272,-0.01584 c -0.344883,-0.0648 -0.948968,-0.122402 -1.333452,-0.122402 h -6.946619 c -0.381603,0 -0.979208,0.0576 -1.332011,0.122402 l -0.072,0.01512 c -0.345603,0.06552 -0.943208,0.122401 -1.332011,0.122401 h -0.316803 -1.000808 -0.309603 c -0.381603,0 -0.698406,0.293762 -0.698406,0.645125 v 0.246962 0.159122 0.172801 c 0,0.360003 0.316803,0.645126 0.698406,0.645126 h 1.620014 c 0.381603,0 0.979208,-0.122401 1.332011,-0.267123 l 0.072,-0.02808 c 0.345603,-0.141121 0.950408,-0.264962 1.332011,-0.264962 h 6.946619 c 0.379444,0 0.977049,0.123841 1.334172,0.265682 l 0.07416,0.02808 c 0.344883,0.144722 0.944648,0.267123 1.333452,0.267123 h 2.224819 c 0.380883,0 0.699126,-0.295203 0.699126,-0.645126 v -0.540724 -0.972729 -1.843935 c -0.277203,0.108 -0.702006,0.410403 -0.702006,1.434252 z"
       id="Shadow"
       inkscape:connector-curvature="0"
       style="opacity:0.3" /><rect
       height="3.1529069"
       width="0.70272601"
       y="77.296494"
       x="88.482559"
       id="ShadowExtra"
       style="opacity:0.4" /><path
       d="m 86.214539,74.898874 c 0.229682,0 0.491044,-0.100801 0.662406,-0.172801 0.201601,-0.0792 0.576724,-0.144001 0.966248,-0.144001 h 1.460892 c 0.224642,0 0.224642,0.244802 0.224642,0.374403 0,0.129601 -0.01512,0.381603 -0.224642,0.381603 h -3.060026 c -0.107281,0 -0.230402,-0.115201 -0.230402,-0.223922 0.0065,-0.08568 0.07848,-0.215282 0.200882,-0.215282 z"
       id="ReflexRight"
       inkscape:connector-curvature="0"
       style="opacity:0.25;fill:#ffffff" /><circle
       r="0.60000002"
       cy="1.5779999"
       cx="9.7220001"
       id="ReflexLeft"
       d="M 10.322,1.5779999 C 10.322,1.9093708 10.053371,2.178 9.7220001,2.178 c -0.3313708,0 -0.6,-0.2686292 -0.6,-0.6000001 0,-0.3313708 0.2686292,-0.59999997 0.6,-0.59999997 0.3313709,0 0.5999999,0.26862917 0.5999999,0.59999997 z"
       sodipodi:cx="9.7220001"
       sodipodi:cy="1.5779999"
       sodipodi:rx="0.60000002"
       sodipodi:ry="0.60000002"
       style="opacity:0.35;fill:#ffffff"
       transform="matrix(0.72000612,0,0,0.72000612,66.463331,73.813105)" /><rect
       height="1.6200137"
       width="0.70272601"
       y="74.236465"
       x="88.482559"
       id="Reflex_gold"
       style="opacity:0.5;fill:#ffff33" /><rect
       height="0.74880636"
       width="0.70272601"
       y="74.596474"
       x="88.482559"
       id="Reflex_extra"
       style="opacity:0.5;fill:#ffffff" /></g></g><g
   id="g128211"
   transform="matrix(0,-1,1,0,-29.387257,98.004094)"><circle
     style="fill:#ffffff;stroke:#d4aa00;stroke-width:1.22399998"
     sodipodi:ry="2.052"
     sodipodi:rx="2.052"
     sodipodi:cy="21.6"
     sodipodi:cx="122.4"
     id="circle111200-1-7"
     r="2.052"
     connectorname="GND"
     cy="21.6"
     cx="122.4"
     transform="matrix(1.0000085,0,0,1.0000085,-80.586275,53.416005)"
     d="m 124.452,21.6 c 0,1.133289 -0.91871,2.052 -2.052,2.052 -1.13329,0 -2.052,-0.918711 -2.052,-2.052 0,-1.133288 0.91871,-2.052 2.052,-2.052 1.13329,0 2.052,0.918712 2.052,2.052 z" /><circle
     style="fill:#ffffff;stroke:#d4aa00;stroke-width:1.22399998"
     sodipodi:ry="2.052"
     sodipodi:rx="2.052"
     sodipodi:cy="21.6"
     sodipodi:cx="122.4"
     id="circle111200-1-1-6"
     r="2.052"
     connectorname="GND"
     cy="21.6"
     cx="122.4"
     transform="matrix(1.0000085,0,0,1.0000085,-109.91171,53.398846)"
     d="m 124.452,21.6 c 0,1.133289 -0.91871,2.052 -2.052,2.052 -1.13329,0 -2.052,-0.918711 -2.052,-2.052 0,-1.133288 0.91871,-2.052 2.052,-2.052 1.13329,0 2.052,0.918712 2.052,2.052 z" /><g
     transform="translate(-54.555556,-2.3334973)"
     id="g112503"><rect
       style="fill:none"
       id="rect112505"
       x="66.823334"
       y="76.397926"
       width="0.72000611"
       height="0.72000611" /><rect
       style="fill:none"
       id="rect112507"
       x="96.283821"
       y="76.397926"
       width="0.72000611"
       height="0.72000611" /><line
       style="fill:none;stroke:#8c8c8c;stroke-width:2.09521794;stroke-linecap:round"
       id="line112509"
       x1="67.510941"
       y1="77.445534"
       x2="68.558548"
       y2="77.445534" /><line
       style="fill:none;stroke:#8c8c8c;stroke-width:2.09521794;stroke-linecap:round"
       id="line112511"
       x1="96.316223"
       y1="77.445534"
       x2="95.268616"
       y2="77.445534" /><path
       style="fill:none;stroke:#8c8c8c;stroke-width:2.09521794"
       inkscape:connector-curvature="0"
       d="m 67.51094,77.445536 28.366801,0"
       id="path112513" /><path
       style="fill:#d9b477"
       inkscape:connector-curvature="0"
       id="path112515"
       d="M 76.711178,74.308469 C 76.351175,74.142868 75.73197,74.013267 75.335966,74.013267 H 73.34875 c -0.396004,0 -0.720007,0.324002 -0.720007,0.720006 v 5.356125 c 0,0.396724 0.324003,0.720006 0.720007,0.720006 h 1.987216 c 0.396004,0 1.015209,-0.136081 1.375212,-0.295202 l 0.072,-0.03528 c 0.360003,-0.165602 0.979208,-0.295203 1.375211,-0.295203 h 7.185661 c 0.396724,0 1.014489,0.136081 1.374492,0.295203 l 0.07272,0.03528 c 0.360003,0.165601 0.977768,0.295202 1.375211,0.295202 h 1.987217 c 0.397444,0 0.720006,-0.323282 0.720006,-0.720006 v -5.356125 c 0,-0.396004 -0.322562,-0.720006 -0.720006,-0.720006 h -1.987217 c -0.397443,0 -1.015208,0.136801 -1.375211,0.295202 l -0.07272,0.036 c -0.360003,0.165601 -0.977768,0.295202 -1.374492,0.295202 h -7.18566 c -0.396003,0 -1.015208,-0.136801 -1.375211,-0.295202 l -0.072,-0.036 z" /><rect
       style="fill:#ad9f4e"
       id="rect112517"
       x="88.482559"
       y="74.00679"
       width="0.70272601"
       height="6.7954178" /><rect
       style="fill:#000000"
       id="rect112519"
       x="82.636108"
       y="74.639671"
       width="1.8504157"
       height="5.5368471" /><rect
       style="fill:#676c53"
       id="rect112521"
       x="78.935997"
       y="74.639671"
       width="1.8504157"
       height="5.5368471" /><path
       style="fill:#0000ff"
       inkscape:connector-curvature="0"
       id="path112523"
       d="m 77.092061,74.45247 c -0.115201,-0.036 -0.223202,-0.072 -0.309602,-0.115201 l -0.072,-0.036 C 76.350455,74.136388 75.73125,74.006067 75.335246,74.006067 h -0.0864 v 6.796137 h 0.0864 c 0.396004,0 1.015209,-0.136081 1.375212,-0.295202 l 0.072,-0.03528 c 0.0864,-0.04464 0.194401,-0.07992 0.309602,-0.115201 V 74.45247 z" /><path
       style="opacity:0.3"
       inkscape:connector-curvature="0"
       id="path112525"
       d="m 90.174573,77.90274 0,0 c 0,0.379443 -0.130322,0.699126 -0.295203,0.699126 h -1.922416 c -0.380164,0 -0.977769,-0.05616 -1.332732,-0.122401 l -0.07272,-0.01584 c -0.344883,-0.0648 -0.948968,-0.122402 -1.333452,-0.122402 h -6.946619 c -0.381603,0 -0.979208,0.0576 -1.332011,0.122402 l -0.072,0.01512 c -0.345603,0.06552 -0.943208,0.122401 -1.332011,0.122401 h -0.316803 -1.000808 -0.309603 c -0.381603,0 -0.698406,0.293762 -0.698406,0.645125 v 0.246962 0.159122 0.172801 c 0,0.360003 0.316803,0.645126 0.698406,0.645126 h 1.620014 c 0.381603,0 0.979208,-0.122401 1.332011,-0.267123 l 0.072,-0.02808 c 0.345603,-0.141121 0.950408,-0.264962 1.332011,-0.264962 h 6.946619 c 0.379444,0 0.977049,0.123841 1.334172,0.265682 l 0.07416,0.02808 c 0.344883,0.144722 0.944648,0.267123 1.333452,0.267123 h 2.224819 c 0.380883,0 0.699126,-0.295203 0.699126,-0.645126 v -0.540724 -0.972729 -1.843935 c -0.277203,0.108 -0.702006,0.410403 -0.702006,1.434252 z" /><rect
       style="opacity:0.4"
       id="rect112527"
       x="88.482559"
       y="77.296494"
       width="0.70272601"
       height="3.1529069" /><path
       style="opacity:0.25;fill:#ffffff"
       inkscape:connector-curvature="0"
       id="path112529"
       d="m 86.214539,74.898874 c 0.229682,0 0.491044,-0.100801 0.662406,-0.172801 0.201601,-0.0792 0.576724,-0.144001 0.966248,-0.144001 h 1.460892 c 0.224642,0 0.224642,0.244802 0.224642,0.374403 0,0.129601 -0.01512,0.381603 -0.224642,0.381603 h -3.060026 c -0.107281,0 -0.230402,-0.115201 -0.230402,-0.223922 0.0065,-0.08568 0.07848,-0.215282 0.200882,-0.215282 z" /><circle
       transform="matrix(0.72000612,0,0,0.72000612,66.463331,73.813105)"
       style="opacity:0.35;fill:#ffffff"
       sodipodi:ry="0.60000002"
       sodipodi:rx="0.60000002"
       sodipodi:cy="1.5779999"
       sodipodi:cx="9.7220001"
       d="M 10.322,1.5779999 C 10.322,1.9093708 10.053371,2.178 9.7220001,2.178 c -0.3313708,0 -0.6,-0.2686292 -0.6,-0.6000001 0,-0.3313708 0.2686292,-0.59999997 0.6,-0.59999997 0.3313709,0 0.5999999,0.26862917 0.5999999,0.59999997 z"
       id="circle112531"
       cx="9.7220001"
       cy="1.5779999"
       r="0.60000002" /><rect
       style="opacity:0.5;fill:#ffff33"
       id="rect112533"
       x="88.482559"
       y="74.236465"
       width="0.70272601"
       height="1.6200137" /><rect
       style="opacity:0.5;fill:#ffffff"
       id="rect112535"
       x="88.482559"
       y="74.596474"
       width="0.70272601"
       height="0.74880636" /></g></g><g
   id="g128168"
   transform="matrix(0,-1,1,0,-29.387257,98.004094)"><circle
     style="fill:#ffffff;stroke:#d4aa00;stroke-width:1.22399998"
     sodipodi:ry="2.052"
     sodipodi:rx="2.052"
     sodipodi:cy="21.6"
     sodipodi:cx="122.4"
     id="circle111200-1-1"
     r="2.052"
     connectorname="GND"
     cy="21.6"
     cx="122.4"
     transform="matrix(1.0000085,0,0,1.0000085,-80.686276,36.702405)"
     d="m 124.452,21.6 c 0,1.133289 -0.91871,2.052 -2.052,2.052 -1.13329,0 -2.052,-0.918711 -2.052,-2.052 0,-1.133288 0.91871,-2.052 2.052,-2.052 1.13329,0 2.052,0.918712 2.052,2.052 z" /><circle
     style="fill:#ffffff;stroke:#d4aa00;stroke-width:1.22399998"
     sodipodi:ry="2.052"
     sodipodi:rx="2.052"
     sodipodi:cy="21.6"
     sodipodi:cx="122.4"
     id="circle111200-1-1-5"
     r="2.052"
     connectorname="GND"
     cy="21.6"
     cx="122.4"
     transform="matrix(1.0000085,0,0,1.0000085,-109.70459,36.623115)"
     d="m 124.452,21.6 c 0,1.133289 -0.91871,2.052 -2.052,2.052 -1.13329,0 -2.052,-0.918711 -2.052,-2.052 0,-1.133288 0.91871,-2.052 2.052,-2.052 1.13329,0 2.052,0.918712 2.052,2.052 z" /><g
     id="g128089"><rect
       height="0.71999902"
       width="0.71999902"
       y="57.247463"
       x="12.824614"
       id="connector0pin-1"
       style="fill:none" /><rect
       height="0.71999902"
       width="0.720999"
       y="57.247463"
       x="39.534584"
       id="connector1pin-0"
       style="fill:none" /><line
       y2="58.29446"
       x2="12.824614"
       y1="58.29446"
       x1="12.824614"
       id="connector0leg-7"
       style="fill:none;stroke:#8c8c8c;stroke-width:2.90999603;stroke-linecap:round" /><line
       y2="58.29446"
       x2="41.169579"
       y1="58.29446"
       x1="41.56958"
       id="connector1leg-3"
       style="fill:none;stroke:#8c8c8c;stroke-width:2.90999603;stroke-linecap:round" /><path
       id="path112255"
       d="m 12.824617,58.294465 h 28.31596"
       inkscape:connector-curvature="0"
       style="fill:none;stroke:#8c8c8c;stroke-width:2.90999603" /><path
       d="m 22.024604,55.15747 c -0.36,-0.166 -0.978999,-0.295 -1.374998,-0.295 h -1.986997 c -0.396,0 -0.719999,0.324 -0.719999,0.719999 v 5.355992 c 0,0.396 0.323999,0.719999 0.719999,0.719999 h 1.986997 c 0.395999,0 1.014998,-0.135999 1.374998,-0.295999 l 0.072,-0.035 c 0.359999,-0.165 0.978998,-0.295 1.374998,-0.295 h 7.18499 c 0.396999,0 1.015998,0.137 1.374998,0.295 l 0.072,0.035 c 0.360999,0.166 0.978998,0.295999 1.375998,0.295999 h 1.986997 c 0.395999,0 0.719999,-0.322999 0.719999,-0.719999 v -5.355992 c 0,-0.395999 -0.323,-0.719999 -0.719999,-0.719999 h -1.986997 c -0.397,0 -1.014999,0.137 -1.375998,0.295 l -0.072,0.036 c -0.359,0.165999 -0.977999,0.294999 -1.374998,0.294999 h -7.18499 c -0.396,0 -1.014999,-0.137 -1.374998,-0.294999 l -0.072,-0.036 z"
       id="body-4"
       inkscape:connector-curvature="0"
       style="fill:#7bc6b8" /><rect
       height="6.7959905"
       width="0.702999"
       y="54.855465"
       x="33.795593"
       id="gold_band-9"
       style="fill:#ad9f4e" /><rect
       height="5.5369925"
       width="1.8509973"
       y="55.488468"
       x="26.509596"
       id="band_3"
       style="fill:#000000" /><rect
       height="5.5369925"
       width="1.8499974"
       y="55.488468"
       x="23.5296"
       id="band_2_nd-6"
       style="fill:#8a3d06;fill-opacity:1" /><path
       d="m 29.373593,55.491469 c 0,0 1.196999,0 1.399998,0 0.203,0 0.438,-0.063 0.438,-0.063 v 5.671992 c 0,0 -0.203,-0.065 -0.438,-0.065 -0.234999,0 -1.399998,-0.007 -1.399998,-0.007 v -5.536992 z"
       id="band_rd_multiplier-5"
       inkscape:connector-curvature="0"
       style="fill:#ff0000" /><path
       d="m 22.405603,55.301469 c -0.115,-0.036 -0.222999,-0.072 -0.309999,-0.114999 l -0.072,-0.036 c -0.359,-0.165 -0.977999,-0.295 -1.373998,-0.295 h -0.087 v 6.79599 h 0.087 c 0.395999,0 1.014998,-0.136999 1.374998,-0.294999 l 0.072,-0.036 c 0.086,-0.044 0.194999,-0.079 0.309999,-0.115 v -5.903992 z"
       id="band_1_st-1"
       inkscape:connector-curvature="0"
       style="fill:#8a3d06;fill-opacity:1" /><path
       d="m 35.488585,58.751464 0,0 c 0,0.38 -0.13,0.698999 -0.295,0.698999 h -1.922997 c -0.38,0 -0.977999,-0.056 -1.331998,-0.121999 l -0.073,-0.016 c -0.345,-0.065 -0.947999,-0.122 -1.332998,-0.122 h -6.94699 c -0.382,0 -0.978999,0.057 -1.331998,0.122 l -0.072,0.015 c -0.345,0.066 -0.942999,0.122999 -1.331998,0.122999 h -0.317 -1.000999 -0.309999 c -0.382,0 -0.697999,0.293 -0.697999,0.645 v 0.246999 0.159 0.173 c 0,0.359999 0.315999,0.645999 0.697999,0.645999 h 1.619998 c 0.380999,0 0.978998,-0.123 1.331998,-0.268 l 0.072,-0.027 c 0.345999,-0.142 0.950998,-0.265999 1.331998,-0.265999 h 6.94599 c 0.379999,0 0.977998,0.123999 1.333998,0.265999 l 0.074,0.028 c 0.345999,0.145 0.944998,0.267 1.333998,0.267 h 2.224997 c 0.380999,0 0.698999,-0.295 0.698999,-0.644999 v -0.540999 -0.972999 -1.843997 c -0.277,0.107999 -0.700999,0.410999 -0.700999,1.433997 z"
       id="Shadow-0"
       inkscape:connector-curvature="0"
       style="fill:#000000;fill-opacity:0.4" /><rect
       height="3.1529956"
       width="0.702999"
       y="58.145466"
       x="33.795593"
       id="ShadowExtra-9" /><path
       d="m 31.52859,55.748469 c 0.23,0 0.491,-0.101 0.661999,-0.173 0.202,-0.079 0.577,-0.144 0.966999,-0.144 h 1.460998 c 0.225,0 0.225,0.245 0.225,0.375 0,0.129999 -0.016,0.381999 -0.225,0.381999 H 31.55759 c -0.107,0 -0.229999,-0.115 -0.229999,-0.224 0.006,-0.087 0.078,-0.215999 0.200999,-0.215999 z"
       id="ReflexRight-9"
       inkscape:connector-curvature="0"
       style="fill:#ffffff" /><circle
       r="0.43200001"
       cy="0.94300002"
       cx="7.408"
       id="ReflexLeft-6"
       d="M 7.84,0.94300002 C 7.84,1.181587 7.646587,1.375 7.408,1.375 7.169413,1.375 6.976,1.181587 6.976,0.94300002 6.976,0.704413 7.169413,0.51100001 7.408,0.51100001 c 0.238587,0 0.432,0.19341299 0.432,0.43200001 z"
       sodipodi:cx="7.408"
       sodipodi:cy="0.94300002"
       sodipodi:rx="0.43200001"
       sodipodi:ry="0.43200001"
       style="fill:#ffffff"
       transform="matrix(0.99999858,0,0,0.99999858,11.369619,54.85547)" /><rect
       height="1.6199977"
       width="0.702999"
       y="55.085468"
       x="33.795593"
       id="Reflex_gold-8"
       style="fill:#ffff33" /><rect
       height="0.74899894"
       width="0.702999"
       y="55.445469"
       x="33.795593"
       id="Reflex_extra-3"
       style="fill:#ffffff" /></g></g><g
   style="opacity:0.99040001"
   id="g126223"
   transform="matrix(1.0000091,0,0,1.0000091,64.525597,51.096991)" /><g
   id="g126914"
   transform="matrix(0,-1,1,0,-30.097618,98.7041)"><path
     sodipodi:nodetypes="cccsc"
     id="path126219"
     d="m 9.1351758,38.038499 c 3.3532092,-0.03314 3.3873612,4.600452 3.7779052,7.441674 0.155531,3.4595 -0.790595,7.356144 -3.638111,7.588331 -2.0328802,0 -2.7318501,-3.37279 -2.7318501,-7.587437 0,-4.215541 0.5591758,-7.442568 2.5920559,-7.442568 z"
     inkscape:connector-curvature="0"
     style="opacity:0.99040001;fill:#ea9821;fill-opacity:0.99610003" /><path
     id="path126221"
     d="M 9.6934178,39.84095 9.4458483,38.507042 c -1.0198153,0.781021 -1.7660003,1.936 -2.0196514,3.292274 L 8.4017106,41.56313 c 0.2432262,-0.711238 0.7027512,-1.308857 1.2917072,-1.72218 z"
     inkscape:connector-curvature="0"
     style="opacity:0.5;fill:#ffffff" /><path
     id="path126227"
     d="m 10.293432,50.795753 -0.20848,1.654064 C 8.025342,51.247501 7.3156415,49.854023 7.0871816,47.547992 l 1.3116873,0.111685 c 0,1.568544 0.5420484,2.71854 1.8945631,3.136081 z"
     inkscape:connector-curvature="0"
     style="opacity:0.54867255;fill:#000000" /><path
     id="path126229"
     d="m 9.5415981,42.873515 c -0.067755,-0.3337 1.6843449,0.623563 2.2854629,0.529626 0.600249,-0.09662 0.464737,-0.43211 0.633258,0.291653 0.171127,0.727342 0.125088,2.758174 0,3.292273 -0.125088,0.534099 0.0582,0.574359 -0.633258,0.483105 -0.69059,-0.09573 -2.2550599,0.716606 -2.1942529,0.437479 0.4273839,-1.905582 0.2475696,-3.64834 -0.09121,-5.034136 z"
     inkscape:connector-curvature="0"
     style="opacity:0.91150447;fill:#ffffff" /></g><g
   id="g126781"
   transform="matrix(-0.82146239,0,0,-0.86905575,65.037259,111.61431)"><ellipse
     transform="matrix(0.61795246,0,0,0.84244219,51.22113,30.943077)"
     id="ellipse126585"
     ry="10.212"
     rx="14.585"
     cy="10.212"
     cx="15.749"
     d="m 30.334,10.212 c 0,5.639932 -6.529927,10.212 -14.585,10.212 C 7.6939265,20.424 1.1639996,15.851932 1.1639996,10.212 1.1639996,4.5720681 7.6939265,0 15.749,0 23.804073,0 30.334,4.5720681 30.334,10.212 z"
     sodipodi:cx="15.749"
     sodipodi:cy="10.212"
     sodipodi:rx="14.585"
     sodipodi:ry="10.212"
     style="fill:#100040" /><ellipse
     transform="matrix(0.61795246,0,0,0.84244219,51.22113,30.943077)"
     id="ellipse126587"
     ry="7.4850001"
     rx="10.69"
     cy="9.6210003"
     cx="15.749"
     d="m 26.438999,9.6210003 c 0,4.1338517 -4.786076,7.4849997 -10.689999,7.4849997 -5.9039241,0 -10.69,-3.351148 -10.69,-7.4849997 0,-4.1338514 4.7860759,-7.4850001 10.69,-7.4850001 5.903923,0 10.689999,3.3511487 10.689999,7.4850001 z"
     sodipodi:cx="15.749"
     sodipodi:cy="9.6210003"
     sodipodi:rx="10.69"
     sodipodi:ry="7.4850001"
     style="fill:#b2b2b2" /><path
     id="path126591"
     d="m 54.348587,39.088321 c 0,-1.107715 0.305887,-2.145312 0.840415,-3.046844 l -2.06705,-1.110219 c -0.750195,1.240441 -1.182143,2.677049 -1.182143,4.20882 0,1.530933 0.433184,2.968376 1.182143,4.210488 l 2.116487,-1.136933 c -0.564191,-0.920731 -0.889852,-1.986709 -0.889852,-3.125312 z"
     inkscape:connector-curvature="0"
     style="fill:#d2eeff" /><path
     id="path126603"
     d="m 60.953263,33.040757 c 3.595866,0 6.514455,2.74552 6.598497,6.157411 0.0019,-0.05055 0.01174,-0.10025 0.01174,-0.150797 0,-3.481813 -2.960611,-6.304838 -6.607766,-6.304838 -3.646537,0 -6.605294,2.825552 -6.605294,6.304838 0,0.05055 0.0062,0.09857 0.0087,0.150797 0.07972,-3.411891 2.998306,-6.157411 6.594171,-6.157411 z"
     inkscape:connector-curvature="0"
     style="opacity:0.35" /><path
     id="path126611"
     d="m 64.579408,47.082584 c 0.0081,-0.204713 -0.109377,-0.343716 -0.203306,-0.401845 -0.100108,-0.05813 -0.268192,-0.150796 -0.580875,-0.03875 h -0.02534 c -0.883673,0.298225 -1.825432,0.469239 -2.816628,0.469239 -4.666777,0 -8.450499,-3.610705 -8.450499,-8.063856 0,-0.125524 0.01421,-0.249363 0.01977,-0.371517 -0.0012,-0.01264 -0.0087,-0.01769 -0.0087,-0.03033 0,-0.199658 -0.05747,-0.45576 -0.180443,-0.484403 -0.142128,-0.03201 -0.211339,0.125525 -0.281168,0.32771 -0.03584,0.09857 -0.06118,0.239254 -0.07972,0.405215 -0.0019,0.0219 -0.005,0.04381 -0.0068,0.06402 -0.0031,0.02359 -0.0037,0.04886 -0.0056,0.07245 -0.01421,0.171858 -0.02163,0.342033 -0.02163,0.514733 0,4.752216 4.035848,8.603862 9.014691,8.603862 1.250118,0 2.429171,-0.262842 3.506263,-0.70007 0.103816,-0.06992 0.114939,-0.18955 0.119882,-0.366462 z"
     inkscape:connector-curvature="0"
     style="opacity:0.2;fill:#ffffff" /><path
     id="path126615"
     d="m 52.502764,39.049055 c 0,-0.126366 0.01421,-0.249363 0.01977,-0.371517 -0.0012,-0.01347 -0.0093,-0.01854 -0.0093,-0.03033 0,-0.199658 -0.05747,-0.456603 -0.180443,-0.484403 -0.14151,-0.0337 -0.210721,0.123838 -0.28055,0.326025 -0.03646,0.09941 -0.06179,0.240096 -0.07972,0.405214 -0.0025,0.02191 -0.0062,0.04381 -0.0081,0.06402 -0.0025,0.02359 -0.0037,0.04886 -0.0056,0.07245 -0.01298,0.171858 -0.02039,0.342032 -0.02039,0.514733 0,1.422041 0.368918,2.757313 1.006027,3.938417 0.055,-0.0497 0.111231,-0.09772 0.176734,-0.133105 L 53.635329,43.07171 C 52.91974,41.88555 52.502622,40.514897 52.502622,39.049048 z"
     inkscape:connector-curvature="0"
     style="fill:#ffffff" /></g><g
   id="g128247"
   transform="matrix(0,-1,1,0,-29.187255,98.7041)"><circle
     style="fill:#ffffff;stroke:#d4aa00;stroke-width:1.22399998"
     sodipodi:ry="2.052"
     sodipodi:rx="2.052"
     sodipodi:cy="21.6"
     sodipodi:cx="122.4"
     id="circle111200-1-1-1"
     r="2.052"
     connectorname="GND"
     cy="21.6"
     cx="122.4"
     transform="matrix(1.0000085,0,0,1.0000085,-90.01549,19.091741)"
     d="m 124.452,21.6 c 0,1.133289 -0.91871,2.052 -2.052,2.052 -1.13329,0 -2.052,-0.918711 -2.052,-2.052 0,-1.133288 0.91871,-2.052 2.052,-2.052 1.13329,0 2.052,0.918712 2.052,2.052 z" /><circle
     style="fill:#ffffff;stroke:#d4aa00;stroke-width:1.22399998"
     sodipodi:ry="2.052"
     sodipodi:rx="2.052"
     sodipodi:cy="21.6"
     sodipodi:cx="122.4"
     id="circle111200-1-1-25"
     r="2.052"
     connectorname="GND"
     cy="21.6"
     cx="122.4"
     transform="matrix(1.0000085,0,0,1.0000085,-77.994571,19.162453)"
     d="m 124.452,21.6 c 0,1.133289 -0.91871,2.052 -2.052,2.052 -1.13329,0 -2.052,-0.918711 -2.052,-2.052 0,-1.133288 0.91871,-2.052 2.052,-2.052 1.13329,0 2.052,0.918712 2.052,2.052 z" /><g
     transform="translate(-26.516732,-1.3435144)"
     id="g127850"><path
       id="path112255-0"
       d="M 59.120622,41.859759 H 70.666894"
       inkscape:connector-curvature="0"
       style="fill:none;stroke:#8c8c8c;stroke-width:1.5963167" /><line
       y2="41.856205"
       x2="70.690842"
       y1="41.856205"
       x1="70.502029"
       id="connector1leg-3-8"
       style="fill:none;stroke:#8c8c8c;stroke-width:1.59568083;stroke-linecap:round" /><path
       d="m 68.298602,39.555345 -7.554865,0 c -0.121428,0 -0.220777,0.08364 -0.220777,0.185866 l 0,4.225905 7.996426,0 -8e-6,-4.225905 c 0,-0.102226 -0.09935,-0.185866 -0.220776,-0.185866 z"
       id="path127496"
       inkscape:connector-curvature="0"
       style="fill:#9f0000;fill-opacity:1" /><path
       d="m 61.333205,40.139563 c 0.474654,0 1.013282,-0.08384 1.366175,-0.143605 0.416869,-0.06558 1.190761,-0.119534 1.995606,-0.119534 h 3.015076 c 0.464335,0 0.464335,0.203372 0.464335,0.311284 0,0.107911 -0.03302,0.317093 -0.464335,0.317093 h -6.317009 c -0.220817,0 -0.474651,-0.09546 -0.474651,-0.18594 0.01238,-0.07222 0.16097,-0.179298 0.414803,-0.179298 z"
       id="ReflexRight-9-0"
       inkscape:connector-curvature="0"
       style="fill:#ffffff" /><line
       y2="41.858322"
       x2="59.306683"
       y1="41.858322"
       x1="59.11787"
       id="connector1leg-3-8-8"
       style="fill:none;stroke:#8c8c8c;stroke-width:1.59568083;stroke-linecap:round" /><rect
       width="1.1118618"
       x="60.513279"
       y="39.555344"
       height="4.2444916"
       id="rect127498"
       style="fill:#000000" /><path
       d="m 68.298602,43.799315 -7.554865,0 c -0.121428,0 -0.220777,0.06905 -0.220777,0.153443 l 0,0.275346 0.970193,0 0,0.163656 6.05606,0 -1.9e-5,-0.163232 0.970192,0 -8e-6,-0.27534 c 0,-0.08439 -0.09935,-0.153873 -0.220776,-0.153873 z"
       id="path127500"
       inkscape:connector-curvature="0"
       style="fill:#333333" /><path
       d="m 60.52296,39.741211 c 0,-0.102226 0.09935,-0.185866 0.220777,-0.185866 l 7.554873,0 c 0.121428,0 0.220776,0.08364 0.220776,0.185866 l 0,0.05369 c 0,-0.102228 -0.09935,-0.185867 -0.220776,-0.185867 l -7.554873,0 c -0.121428,0 -0.220777,0.08364 -0.220777,0.185867 l 0,-0.05369 z"
       id="path127502"
       inkscape:connector-curvature="0"
       style="opacity:0.3;fill:#ffffff" /><path
       d="m 60.525414,43.927861 c 0,-0.102226 0.09935,-0.185867 0.220778,-0.185867 l 7.554873,0 c 0.121427,0 0.220777,0.08364 0.220777,0.185867 l 0,0.05369 c 0,-0.102226 -0.09935,-0.185867 -0.220777,-0.185867 l -7.554873,-1.6e-5 c -0.121428,0 -0.220778,0.08364 -0.220778,0.185867 l 0,-0.05368 z"
       id="path127504"
       inkscape:connector-curvature="0"
       style="opacity:0.3" /><path
       sodipodi:type="arc"
       style="opacity:0.30530976;fill:#000000;fill-opacity:1;stroke:none"
       id="path127801"
       sodipodi:cx="73.859619"
       sodipodi:cy="57.92506"
       sodipodi:rx="5.4407907"
       sodipodi:ry="3.8049974"
       d="m 79.30041,57.92506 c 0,2.101442 -2.435925,3.804998 -5.440791,3.804998 -3.004866,0 -5.440791,-1.703556 -5.440791,-3.804998 0,-2.101442 2.435925,-3.804997 5.440791,-3.804997 3.004866,0 5.440791,1.703555 5.440791,3.804997 z"
       transform="matrix(0.69029767,0,0,0.11171404,13.733108,36.789532)" /></g></g><g
   id="g128232"
   transform="matrix(0,-1,1,0,-29.187255,98.7041)"><circle
     style="fill:#ffffff;stroke:#d4aa00;stroke-width:1.22399998"
     sodipodi:ry="2.052"
     sodipodi:rx="2.052"
     sodipodi:cy="21.6"
     sodipodi:cx="122.4"
     id="circle111200-1-1-2"
     r="2.052"
     connectorname="GND"
     cy="21.6"
     cx="122.4"
     transform="matrix(1.0000085,0,0,1.0000085,-89.944778,25.809313)"
     d="m 124.452,21.6 c 0,1.133289 -0.91871,2.052 -2.052,2.052 -1.13329,0 -2.052,-0.918711 -2.052,-2.052 0,-1.133288 0.91871,-2.052 2.052,-2.052 1.13329,0 2.052,0.918712 2.052,2.052 z" /><circle
     style="fill:#ffffff;stroke:#d4aa00;stroke-width:1.22399998"
     sodipodi:ry="2.052"
     sodipodi:rx="2.052"
     sodipodi:cy="21.6"
     sodipodi:cx="122.4"
     id="circle111200-1-1-4"
     r="2.052"
     connectorname="GND"
     cy="21.6"
     cx="122.4"
     transform="matrix(1.0000085,0,0,1.0000085,-77.853149,25.667891)"
     d="m 124.452,21.6 c 0,1.133289 -0.91871,2.052 -2.052,2.052 -1.13329,0 -2.052,-0.918711 -2.052,-2.052 0,-1.133288 0.91871,-2.052 2.052,-2.052 1.13329,0 2.052,0.918712 2.052,2.052 z" /><g
     id="g127862"
     transform="translate(-26.375309,5.4447689)"><path
       style="fill:none;stroke:#8c8c8c;stroke-width:1.5963167"
       inkscape:connector-curvature="0"
       d="M 59.120622,41.859759 H 70.666894"
       id="path127864" /><line
       style="fill:none;stroke:#8c8c8c;stroke-width:1.59568083;stroke-linecap:round"
       id="line127866"
       x1="70.502029"
       y1="41.856205"
       x2="70.690842"
       y2="41.856205" /><path
       style="fill:#9f0000;fill-opacity:1"
       inkscape:connector-curvature="0"
       id="path127868"
       d="m 68.298602,39.555345 -7.554865,0 c -0.121428,0 -0.220777,0.08364 -0.220777,0.185866 l 0,4.225905 7.996426,0 -8e-6,-4.225905 c 0,-0.102226 -0.09935,-0.185866 -0.220776,-0.185866 z" /><path
       style="fill:#ffffff"
       inkscape:connector-curvature="0"
       id="path127870"
       d="m 61.333205,40.139563 c 0.474654,0 1.013282,-0.08384 1.366175,-0.143605 0.416869,-0.06558 1.190761,-0.119534 1.995606,-0.119534 h 3.015076 c 0.464335,0 0.464335,0.203372 0.464335,0.311284 0,0.107911 -0.03302,0.317093 -0.464335,0.317093 h -6.317009 c -0.220817,0 -0.474651,-0.09546 -0.474651,-0.18594 0.01238,-0.07222 0.16097,-0.179298 0.414803,-0.179298 z" /><line
       style="fill:none;stroke:#8c8c8c;stroke-width:1.59568083;stroke-linecap:round"
       id="line127872"
       x1="59.11787"
       y1="41.858322"
       x2="59.306683"
       y2="41.858322" /><rect
       style="fill:#000000"
       id="rect127874"
       height="4.2444916"
       y="39.555344"
       x="60.513279"
       width="1.1118618" /><path
       style="fill:#333333"
       inkscape:connector-curvature="0"
       id="path127876"
       d="m 68.298602,43.799315 -7.554865,0 c -0.121428,0 -0.220777,0.06905 -0.220777,0.153443 l 0,0.275346 0.970193,0 0,0.163656 6.05606,0 -1.9e-5,-0.163232 0.970192,0 -8e-6,-0.27534 c 0,-0.08439 -0.09935,-0.153873 -0.220776,-0.153873 z" /><path
       style="opacity:0.3;fill:#ffffff"
       inkscape:connector-curvature="0"
       id="path127878"
       d="m 60.52296,39.741211 c 0,-0.102226 0.09935,-0.185866 0.220777,-0.185866 l 7.554873,0 c 0.121428,0 0.220776,0.08364 0.220776,0.185866 l 0,0.05369 c 0,-0.102228 -0.09935,-0.185867 -0.220776,-0.185867 l -7.554873,0 c -0.121428,0 -0.220777,0.08364 -0.220777,0.185867 l 0,-0.05369 z" /><path
       style="opacity:0.3"
       inkscape:connector-curvature="0"
       id="path127880"
       d="m 60.525414,43.927861 c 0,-0.102226 0.09935,-0.185867 0.220778,-0.185867 l 7.554873,0 c 0.121427,0 0.220777,0.08364 0.220777,0.185867 l 0,0.05369 c 0,-0.102226 -0.09935,-0.185867 -0.220777,-0.185867 l -7.554873,-1.6e-5 c -0.121428,0 -0.220778,0.08364 -0.220778,0.185867 l 0,-0.05368 z" /><path
       transform="matrix(0.69029767,0,0,0.11171404,13.733108,36.789532)"
       d="m 79.30041,57.92506 c 0,2.101442 -2.435925,3.804998 -5.440791,3.804998 -3.004866,0 -5.440791,-1.703556 -5.440791,-3.804998 0,-2.101442 2.435925,-3.804997 5.440791,-3.804997 3.004866,0 5.440791,1.703555 5.440791,3.804997 z"
       sodipodi:ry="3.8049974"
       sodipodi:rx="5.4407907"
       sodipodi:cy="57.92506"
       sodipodi:cx="73.859619"
       id="path127882"
       style="opacity:0.30530976;fill:#000000;fill-opacity:1;stroke:none"
       sodipodi:type="arc" /></g></g><circle
   d="m 124.452,21.6 c 0,1.133289 -0.91871,2.052 -2.052,2.052 -1.13329,0 -2.052,-0.918711 -2.052,-2.052 0,-1.133288 0.91871,-2.052 2.052,-2.052 1.13329,0 2.052,0.918712 2.052,2.052 z"
   transform="matrix(0,-1.0000085,1.0000085,0,-19.435168,203.45521)"
   cx="122.4"
   cy="21.6"
   connectorname="GND"
   r="2.052"
   id="circle111200-8"
   sodipodi:cx="122.4"
   sodipodi:cy="21.6"
   sodipodi:rx="2.052"
   sodipodi:ry="2.052"
   style="fill:#ffffff;stroke:#d4aa00;stroke-width:1.22399998" /><circle
   d="m 124.452,21.6 c 0,1.133289 -0.91871,2.052 -2.052,2.052 -1.13329,0 -2.052,-0.918711 -2.052,-2.052 0,-1.133288 0.91871,-2.052 2.052,-2.052 1.13329,0 2.052,0.918712 2.052,2.052 z"
   transform="matrix(0,-1.0000085,1.0000085,0,-19.435168,196.80515)"
   cx="122.4"
   cy="21.6"
   connectorname="GND"
   r="2.052"
   id="circle111200-6"
   sodipodi:cx="122.4"
   sodipodi:cy="21.6"
   sodipodi:rx="2.052"
   sodipodi:ry="2.052"
   style="fill:#ffffff;stroke:#d4aa00;stroke-width:1.22399998" /><circle
   d="m 124.452,21.6 c 0,1.133289 -0.91871,2.052 -2.052,2.052 -1.13329,0 -2.052,-0.918711 -2.052,-2.052 0,-1.133288 0.91871,-2.052 2.052,-2.052 1.13329,0 2.052,0.918712 2.052,2.052 z"
   transform="matrix(0,-1.0000085,1.0000085,0,-19.335167,190.7051)"
   cx="122.4"
   cy="21.6"
   connectorname="GND"
   r="2.052"
   id="circle111200-2"
   sodipodi:cx="122.4"
   sodipodi:cy="21.6"
   sodipodi:rx="2.052"
   sodipodi:ry="2.052"
   style="fill:#ffffff;stroke:#d4aa00;stroke-width:1.22399998" /><circle
   d="m 124.452,21.6 c 0,1.133289 -0.91871,2.052 -2.052,2.052 -1.13329,0 -2.052,-0.918711 -2.052,-2.052 0,-1.133288 0.91871,-2.052 2.052,-2.052 1.13329,0 2.052,0.918712 2.052,2.052 z"
   transform="matrix(0,-1.0000085,1.0000085,0,-19.235167,184.15504)"
   cx="122.4"
   cy="21.6"
   connectorname="GND"
   r="2.052"
   id="circle111200-65"
   sodipodi:cx="122.4"
   sodipodi:cy="21.6"
   sodipodi:rx="2.052"
   sodipodi:ry="2.052"
   style="fill:#ffffff;stroke:#d4aa00;stroke-width:1.22399998" /><rect
   style="fill:#999999;fill-opacity:1;stroke:none"
   id="rect128301"
   width="2.2000189"
   height="3.9500339"
   x="-82.204178"
   y="-1.4350158"
   transform="matrix(0,-1,1,0,0,0)" /><rect
   style="fill:#999999;fill-opacity:1;stroke:none"
   id="rect128301-3"
   width="2.2000189"
   height="3.9500339"
   x="-75.50412"
   y="-1.4600135"
   transform="matrix(0,-1,1,0,0,0)" /><rect
   style="fill:#999999;fill-opacity:1;stroke:none"
   id="rect128301-9"
   width="2.2000189"
   height="3.9500339"
   x="-69.40406"
   y="-1.4600173"
   transform="matrix(0,-1,1,0,0,0)" /><rect
   style="fill:#999999;fill-opacity:1;stroke:none"
   id="rect128301-2"
   width="2.2000189"
   height="3.9500339"
   x="-62.904007"
   y="-1.4600173"
   transform="matrix(0,-1,1,0,0,0)" /><g
   style="display:inline"
   id="g7821"
   transform="matrix(-0.79998857,0.00540402,-0.00540402,-0.79998857,101.93843,88.026002)"><g
     style="display:inline"
     id="g7823"
     transform="matrix(0.8,0,0,1,2.7,-405)"><rect
       width="2.25"
       x="-13.5"
       y="-423.45001"
       height="3.5999999"
       style="fill:url(#linearGradient12747);fill-opacity:1;stroke:none;display:inline"
       id="rect7825"
       transform="scale(-1,-1)" /><rect
       width="2.25"
       x="-13.5"
       y="-429.29999"
       height="3.5999999"
       style="fill:url(#linearGradient12749);fill-opacity:1;stroke:none;display:inline"
       id="rect7827"
       transform="scale(-1,-1)" /><rect
       width="2.25"
       x="-13.5"
       y="-435.14999"
       height="3.5999999"
       style="fill:url(#linearGradient12751);fill-opacity:1;stroke:none;display:inline"
       id="rect7829"
       transform="scale(-1,-1)" /></g><g
     style="display:inline"
     id="g7831"
     transform="matrix(-0.8,0,0,-1,42.3,449.99999)"><rect
       width="2.25"
       x="-13.5"
       y="-423.45001"
       height="3.5999999"
       style="fill:url(#linearGradient12753);fill-opacity:1;stroke:none;display:inline"
       id="rect7833"
       transform="scale(-1,-1)" /><rect
       width="2.25"
       x="-13.5"
       y="-429.29999"
       height="3.5999999"
       style="fill:url(#linearGradient12755);fill-opacity:1;stroke:none;display:inline"
       id="rect7835"
       transform="scale(-1,-1)" /><rect
       width="2.25"
       x="-13.5"
       y="-435.14999"
       height="3.5999999"
       style="fill:url(#linearGradient12757);fill-opacity:1;stroke:none;display:inline"
       id="rect7837"
       transform="scale(-1,-1)" /></g><rect
     width="18"
     x="13.5"
     y="418.5"
     height="18"
     style="fill:#e6e6e6;fill-opacity:1;stroke:none;display:inline"
     id="rect7839"
     transform="translate(0,-405)" /><path
     style="fill:#b1b1b1;fill-opacity:1;stroke:url(#linearGradient12759);stroke-width:0.54000002;stroke-miterlimit:4;stroke-dasharray:none;display:inline"
     id="path7841"
     d="m 29.25,22.5 a 6.75,6.75 0 1 1 -13.5,0 6.75,6.75 0 1 1 13.5,0 z"
     inkscape:connector-curvature="0" /><path
     style="fill:#1423ff;fill-opacity:1;stroke:none;display:inline"
     id="path7843"
     d="m 6.75,40.5 a 2.25,2.25 0 1 1 -4.5,0 2.25,2.25 0 1 1 4.5,0 z"
     transform="translate(18,-13.95)"
     inkscape:connector-curvature="0" /><path
     style="fill:#ff2a2a;fill-opacity:1;stroke:none;display:inline"
     id="path7845"
     d="m 6.75,40.5 a 2.25,2.25 0 1 1 -4.5,0 2.25,2.25 0 1 1 4.5,0 z"
     transform="translate(13.95,-18)"
     inkscape:connector-curvature="0" /><path
     style="fill:#00ff0b;fill-opacity:1;stroke:none;display:inline"
     id="path7847"
     d="m 6.75,40.5 a 2.25,2.25 0 1 1 -4.5,0 2.25,2.25 0 1 1 4.5,0 z"
     transform="translate(18,-22.05)"
     inkscape:connector-curvature="0" /><g
     style="display:inline"
     id="g7849"
     transform="translate(0,-405)"><rect
       width="3.5999999"
       x="24.299999"
       y="20.700001"
       height="3.5999999"
       style="fill:#552200;stroke:#624100;stroke-width:0.18000001;stroke-linecap:butt;stroke-linejoin:round;stroke-miterlimit:4;stroke-opacity:1;stroke-dasharray:none;stroke-dashoffset:0"
       id="rect7851"
       transform="translate(0,405)" /><path
       style="color:#000000;fill:none;stroke:#684c26;stroke-width:0.18000001;stroke-linecap:round;stroke-linejoin:miter;stroke-miterlimit:4;stroke-opacity:1;stroke-dasharray:none;stroke-dashoffset:0;marker:none;visibility:visible;display:inline;overflow:visible;enable-background:accumulate"
       id="path7853"
       d="m 24.75,21.15 2.7,0 0,0.45 -2.7,0 0,0.45 2.7,0 0,0.45 -2.7,0 0,0.45 2.7,0 0,0.45 -2.7,0 0,0.45 2.7,0"
       transform="translate(0,405)"
       inkscape:connector-curvature="0" /></g><path
     style="fill:url(#radialGradient3166);fill-opacity:1;stroke:none"
     id="path7855"
     d="m 29.25,22.5 a 6.75,6.75 0 1 1 -13.5,0 6.75,6.75 0 1 1 13.5,0 z"
     inkscape:connector-curvature="0" /></g><rect
   style="fill:#b3b3b3;fill-opacity:1;stroke:none"
   id="rect6340"
   width="0.95000809"
   height="2.4000204"
   x="80.81707"
   y="78.847931" /><rect
   style="fill:#b3b3b3;fill-opacity:1;stroke:none"
   id="rect6340-1"
   width="0.85000724"
   height="2.4000204"
   x="85.417107"
   y="78.847931" /><rect
   style="fill:#8a3d06;fill-opacity:1;stroke:none"
   id="rect6340-7"
   width="3.6500311"
   height="2.4000204"
   x="81.767082"
   y="78.847931" /></g>
</svg>